:version 1.10
:name ASF
:units
  mass 1
  length 1
  angle deg
:documentation
  ASF file generated by Kaydara
:root
  axis xyz
  order  tx ty tz rx ry rz
  position 0 0 0
  orientation 0 0 0
:bonedata
  begin
    id 1
    name SpineDummy
    direction 0.999998 -0.00179978 1.38929e-006
    length 3.60008
    axis 0 0 0 xyz
  end
  begin
    id 2
    name Spine
    direction 0.964365 0.262802 0.0305839
    length 8.13928
    axis 1.33928 -1.75354 15.2838 xyz
    dof rx ry rz
  end
  begin
    id 3
    name Spine1
    direction 0.811168 0.572065 0.12144
    length 7.14954
    axis 2.2224 -6.9761 35.2157 xyz
    dof rx ry rz
  end
  begin
    id 4
    name Neck
    direction 0 0 0
    length 0
    axis 2.2224 -6.9761 35.2157 xyz
    dof rx ry rz
  end
  begin
    id 5
    name HeadDummy
    direction 0.810939 0.572387 0.121455
    length 3.55534
    axis 2.2224 -6.9761 35.2157 xyz
  end
  begin
    id 6
    name Head
    direction 0.998226 -0.000232542 0.0595419
    length 7.35666
    axis -3.03688 -3.41352 -0.0133467 xyz
    dof rx ry rz
  end
  begin
    id 7
    name R_ClavicleDummy
    direction 0.531669 -0.194489 -0.824319
    length 2.49392
    axis 2.2224 -6.9761 35.2157 xyz
  end
  begin
    id 8
    name R_Clavicle
    direction -0.155119 0.0480802 -0.986725
    length 4.485
    axis -54.2764 80.6538 162.779 xyz
    dof rx ry rz
  end
  begin
    id 9
    name R_UpperArm
    direction -0.955567 0.200068 -0.216484
    length 10.1122
    axis -72.9943 12.5026 168.175 xyz
    dof rx ry rz
  end
  begin
    id 10
    name R_Forearm
    direction -0.61433 0.385743 0.688332
    length 9.39148
    axis -117.015 -43.4982 147.875 xyz
    dof rx ry rz
  end
  begin
    id 11
    name R_Hand
    direction -0.699429 0.0170333 0.714499
    length 3.66324
    axis -45.0303 -36.7097 175.478 xyz
    dof rx ry rz
  end
  begin
    id 12
    name L_ClavicleDummy
    direction 0.40287 -0.36502 0.839319
    length 2.49392
    axis 2.2224 -6.9761 35.2157 xyz
  end
  begin
    id 13
    name L_Clavicle
    direction -0.231271 -0.0726419 0.970174
    length 4.485
    axis 18.4357 -75.9711 -162.563 xyz
    dof rx ry rz
  end
  begin
    id 14
    name L_UpperArm
    direction -0.917494 0.144359 0.370629
    length 10.1122
    axis 56.0417 -21.7544 171.058 xyz
    dof rx ry rz
  end
  begin
    id 15
    name L_Forearm
    direction -0.496786 0.615074 -0.612281
    length 9.39148
    axis 89.8094 37.7546 128.927 xyz
    dof rx ry rz
  end
  begin
    id 16
    name L_Hand
    direction -0.409932 0.64962 -0.640274
    length 3.66324
    axis -0.424369 32.133 128.52 xyz
    dof rx ry rz
  end
  begin
    id 17
    name L_ThighDummy
    direction -1.84081e-006 1.87549e-006 1
    length 3.13049
    axis 0 0 0 xyz
  end
  begin
    id 18
    name L_Thigh
    direction -0.947739 0.307978 0.083308
    length 17.9961
    axis 173.219 -4.77873 161.998 xyz
    dof rx ry rz
  end
  begin
    id 19
    name L_Calf
    direction -0.728814 -0.684427 0.0197583
    length 13.3367
    axis 167.331 -1.13214 -136.799 xyz
    dof rx ry rz
  end
  begin
    id 20
    name L_Foot
    direction -0.9028 0.418719 0.0981191
    length 5.8674
    axis 163.436 11.5135 -155.37 xyz
    dof rx ry rz
  end
  begin
    id 21
    name L_Toe0
    direction -0.35341 0.886259 0.299411
    length 4.75286
    axis 169.316 -17.4222 111.74 xyz
    dof rx ry rz
  end
  begin
    id 22
    name R_ThighDummy
    direction 9.32778e-007 -8.82053e-007 -1
    length 3.13049
    axis 0 0 0 xyz
  end
  begin
    id 23
    name R_Thigh
    direction -0.925064 0.37528 -0.0585023
    length 17.9961
    axis -178.698 3.35385 157.919 xyz
    dof rx ry rz
  end
  begin
    id 24
    name R_Calf
    direction -0.68969 -0.718776 -0.0876886
    length 13.3367
    axis -160.504 5.03065 -133.817 xyz
    dof rx ry rz
  end
  begin
    id 25
    name R_Foot
    direction -0.857405 0.418858 -0.299022
    length 5.8674
    axis -161.328 4.38911 -154.413 xyz
    dof rx ry rz
  end
  begin
    id 26
    name R_Toe0
    direction -0.100745 0.952789 -0.286433
    length 4.75286
    axis 171.683 16.6445 96.0359 xyz
    dof rx ry rz
  end
:hierarchy
  begin
    root SpineDummy L_ThighDummy R_ThighDummy
    SpineDummy Spine
    Spine Spine1
    Spine1 Neck
    Neck HeadDummy R_ClavicleDummy L_ClavicleDummy
    HeadDummy Head
    R_ClavicleDummy R_Clavicle
    R_Clavicle R_UpperArm
    R_UpperArm R_Forearm
    R_Forearm R_Hand
    L_ClavicleDummy L_Clavicle
    L_Clavicle L_UpperArm
    L_UpperArm L_Forearm
    L_Forearm L_Hand
    L_ThighDummy L_Thigh
    L_Thigh L_Calf
    L_Calf L_Foot
    L_Foot L_Toe0
    R_ThighDummy R_Thigh
    R_Thigh R_Calf
    R_Calf R_Foot
    R_Foot R_Toe0
  end

:SAMPLES-PER-SECOND 30
:FULLY-SPECIFIED
:DEGREES
107
root  -24.4669 25.8028 -31.9532 88.4285 -6.31506 61.4523
Spine  -8.33623 -2.5975 6.13771
Spine1  -14.0982 40.6753 -14.8365
Neck  3.97569e-016 0 -2.38542e-015
Head  51.679 3.58282 9.12494
R_Clavicle  0.534529 -4.41541 2.85627
R_UpperArm  45.7244 15.7414 50.2208
R_Forearm  16.0074 -11.8326 10.0061
R_Hand  0.115267 5.60204 -8.27581
L_Clavicle  -1.29578 -5.00704 7.85257
L_UpperArm  -60.1611 -51.5603 35.4167
L_Forearm  -6.34007 15.7126 18.9508
L_Hand  -0.610234 3.14621 -7.85363
L_Thigh  -43.7093 -14.3999 -11.0076
L_Calf  13.4753 3.44124 -26.292
L_Foot  -2.60532 -11.9333 4.47367
L_Toe0  0.505156 0.0217667 -6.13621
R_Thigh  13.4017 13.9402 23.1413
R_Calf  -4.24396 -1.17209 -3.42879
R_Foot  4.15799 13.783 8.46663
R_Toe0  -1.78845 -0.272785 -17.3235
108
root  -24.9085 24.9036 -31.2386 87.3923 -8.28321 61.646
Spine  -9.00427 -5.33429 6.59917
Spine1  -14.4695 45.7159 -14.1632
Neck  3.97569e-016 0 -2.38542e-015
Head  55.9136 4.20365 8.1722
R_Clavicle  0.819773 -3.2064 4.49298
R_UpperArm  50.3315 17.925 47.8111
R_Forearm  15.1243 -11.4343 9.65537
R_Hand  0.116672 5.96418 -8.61376
L_Clavicle  -1.25497 -5.93115 7.28696
L_UpperArm  -53.137 -50.2905 38.0976
L_Forearm  -4.47381 22.3681 28.4216
L_Hand  -0.589355 2.92096 -7.75426
L_Thigh  -41.3631 -13.3385 -11.7617
L_Calf  8.0985 3.02256 -22.9297
L_Foot  -1.00742 -8.7625 9.64801
L_Toe0  0.505156 0.0230149 -6.1362
R_Thigh  16.3417 13.1976 26.6106
R_Calf  -5.07166 -3.35402 -10.2562
R_Foot  3.17518 11.2092 13.7437
R_Toe0  -1.78862 -0.272784 -17.3236
109
root  -25.1886 24.5284 -30.5689 86.9664 -9.19866 62.6081
Spine  -9.25377 -5.55778 6.14792
Spine1  -13.6986 45.2425 -12.1831
Neck  3.97569e-016 0 -2.38542e-015
Head  57.6444 5.30231 7.81232
R_Clavicle  0.879392 -3.07323 4.83239
R_UpperArm  52.6696 17.1403 43.6672
R_Forearm  14.336 -9.70281 8.14652
R_Hand  0.0250475 5.201 -8.70632
L_Clavicle  -1.0771 -6.27097 6.60858
L_UpperArm  -42.2583 -47.0387 37.4645
L_Forearm  -0.382601 26.898 35.4175
L_Hand  -0.414607 3.62221 -4.99105
L_Thigh  -35.0523 -9.81301 -14.2069
L_Calf  -0.30119 2.82236 -21.3931
L_Foot  0.421141 -6.03249 12.7857
L_Toe0  0.505156 0.0243232 -6.13619
R_Thigh  17.5121 12.0962 27.3501
R_Calf  -5.29791 -4.33365 -13.3562
R_Foot  3.00662 10.9083 16.7443
R_Toe0  -1.79307 -0.272862 -17.3261
110
root  -25.2026 24.4112 -29.8136 85.7124 -9.26469 64.4542
Spine  -9.07302 -3.90348 4.98007
Spine1  -12.2908 40.308 -9.96709
Neck  3.97569e-016 0 -2.38542e-015
Head  58.8069 5.34139 7.4466
R_Clavicle  0.778889 -2.98352 4.23293
R_UpperArm  49.7143 17.6979 36.6708
R_Forearm  13.4592 -7.68236 6.41251
R_Hand  -0.0128241 4.70773 -8.55515
L_Clavicle  -0.634633 -5.6075 4.16595
L_UpperArm  -34.129 -41.4787 36.5165
L_Forearm  4.79981 30.4072 38.9337
L_Hand  -0.274817 3.71689 -3.24533
L_Thigh  -27.0259 -5.21083 -17.8311
L_Calf  -7.53003 2.84782 -21.6193
L_Foot  1.28116 -3.97141 13.2538
L_Toe0  0.505156 0.0256626 -6.13617
R_Thigh  16.2213 11.0281 25.9794
R_Calf  -6.60512 -4.72479 -14.6154
R_Foot  3.65689 12.3007 19.0956
R_Toe0  -1.74398 -0.271992 -17.2982
111
root  -24.9511 24.5599 -29.0282 83.7053 -9.40329 66.8148
Spine  -8.1654 -1.2369 3.41516
Spine1  -10.7656 33.4537 -9.18729
Neck  3.97569e-016 0 -2.38542e-015
Head  60.3049 3.34458 6.94761
R_Clavicle  0.665363 -2.50937 3.53771
R_UpperArm  43.353 20.6462 26.8386
R_Forearm  11.7086 -4.7359 3.9223
R_Hand  0.0717803 5.48378 -8.55559
L_Clavicle  -0.39095 -2.64721 2.84691
L_UpperArm  -30.1871 -32.5232 35.1027
L_Forearm  7.00557 32.1984 39.6775
L_Hand  -0.235286 1.90032 -3.45779
L_Thigh  -17.3957 -0.643417 -20.7478
L_Calf  -11.7398 3.07412 -23.4287
L_Foot  2.34951 -1.7978 14.4854
L_Toe0  0.505156 0.0270045 -6.13616
R_Thigh  13.4273 9.97112 24.235
R_Calf  -7.30774 -4.69459 -14.5209
R_Foot  3.87439 12.7218 20.1903
R_Toe0  -1.56155 -0.268757 -17.1945
112
root  -24.5022 25.0267 -28.3031 82.7085 -9.92455 69.0396
Spine  -6.40416 2.64048 2.06723
Spine1  -9.0574 25.9842 -10.5183
Neck  3.97569e-016 0 -2.38542e-015
Head  61.2832 0.253577 6.79834
R_Clavicle  0.578999 -1.76075 3.01345
R_UpperArm  37.6337 23.0116 15.6707
R_Forearm  8.28488 0.578189 -0.508323
R_Hand  0.106577 6.12178 -8.85284
L_Clavicle  -0.299612 0.603896 2.09191
L_UpperArm  -28.3646 -20.5101 31.8753
L_Forearm  6.11043 31.706 39.4375
L_Hand  -0.207194 -0.262085 -4.45068
L_Thigh  -5.98989 4.70365 -21.3858
L_Calf  -13.9086 3.50306 -26.9296
L_Foot  3.84305 0.406081 17.4056
L_Toe0  0.505156 0.0283199 -6.13615
R_Thigh  10.1822 8.73563 22.4515
R_Calf  -6.5891 -4.05438 -12.4394
R_Foot  3.77261 12.5236 20.1048
R_Toe0  -1.64881 -0.270307 -17.2441
113
root  -23.8731 25.6397 -27.5745 84.2773 -10.1336 71.389
Spine  -3.94261 7.68453 1.83756
Spine1  -6.85384 17.3716 -13.5615
Neck  3.97569e-016 0 -2.38542e-015
Head  59.7965 -2.3219 7.43888
R_Clavicle  0.537418 -0.68781 2.75395
R_UpperArm  34.8015 22.727 5.5506
R_Forearm  4.61768 7.73677 -6.51203
R_Hand  0.132953 6.44957 -8.91109
L_Clavicle  -0.312572 4.29284 1.87476
L_UpperArm  -29.4735 -7.95011 27.4718
L_Forearm  7.47 31.2385 39.7173
L_Hand  -0.199227 -1.15239 -5.21025
L_Thigh  5.40278 11.174 -18.8144
L_Calf  -14.5097 4.00765 -31.1859
L_Foot  5.07135 2.21351 19.4112
L_Toe0  0.505156 0.0295802 -6.13614
R_Thigh  6.57065 6.36293 19.5495
R_Calf  -5.65911 -2.90504 -8.77077
R_Foot  4.92295 14.7695 19.8821
R_Toe0  -1.8706 -0.271775 -17.3702
